<svg id="Capa_1" enable-background="new 0 0 512 512" height="512" viewBox="0 0 512 512" width="512" xmlns="http://www.w3.org/2000/svg"><g><path d="m275.756 448.376-106.066-106.066.016 127.264 42.426 42.426z" fill="#2c2c2f"/><path d="m63.624 236.244-63.624 63.624 42.426 42.426 127.264.016z" fill="#424246"/><path d="m243.952 268.048-95.46 95.46 148.493 148.492 53.033-53.033z" fill="#807dbb"/><path d="m350.018 458.967 5.46-5.46c19.831-19.831 30.753-46.199 30.754-74.246v-138.64l-57.427-57.427-127.28 127.281z" fill="#9b99c9"/><path d="m53.033 161.982-53.033 53.033 148.492 148.493 95.46-95.46z" fill="#9b99c9"/><path d="m328.805 183.195-57.427-57.427h-138.64c-28.047.001-54.414 10.923-74.246 30.754l-5.46 5.46 148.492 148.492z" fill="#b6b5d8"/><path d="m462.357 176.922c20.654-20.654 35.707-46.465 43.504-74.614s8.173-58.007 1.089-86.344l-2.183-8.731-169.674 106.035z" fill="#807dbb"/><path d="m504.768 7.232-8.731-2.183c-28.337-7.084-58.195-6.708-86.344 1.089-28.15 7.797-53.96 22.85-74.615 43.504l31.834 95.445z" fill="#9b99c9"/><path d="m462.357 176.922-63.639-63.64-127.279 42.427 148.492 63.639z" fill="#2c2c2f"/><path d="m398.718 113.282-63.64-63.639-42.426 42.426 31.82 95.459z" fill="#424246"/><path d="m148.492 299.868-42.426 106.066 63.64 63.64 42.426-42.427z" fill="#58585e"/><path d="m84.853 299.868-42.427 42.426 63.64 63.64 74.246-74.246z" fill="#6d6d76"/><path d="m212.132 427.147 207.799-207.799-63.64-63.639-156.932 50.866-50.867 156.933z" fill="#b6b5d8"/><path d="m73.636 182.788h293.872v90h-293.872z" fill="#dadaeb" transform="matrix(.707 -.707 .707 .707 -96.467 222.686)"/></g></svg>